<?xml version="1.0" standalone="no"?>
<!DOCTYPE svg PUBLIC "-//W3C//DTD SVG 20010904//EN"
 "http://www.w3.org/TR/2001/REC-SVG-20010904/DTD/svg10.dtd">
<svg version="1.0" xmlns="http://www.w3.org/2000/svg"
 width="1024.000000pt" height="1024.000000pt" viewBox="0 0 1024.000000 1024.000000"
 preserveAspectRatio="xMidYMid meet">
<metadata>
Created by potrace 1.11, written by Peter Selinger 2001-2013
</metadata>
<g transform="translate(0.000000,1024.000000) scale(0.100000,-0.100000)"
fill="#000000" stroke="none">
<path d="M262 10230 c-93 -22 -192 -106 -235 -197 l-22 -48 0 -4870 0 -4870
27 -56 c35 -70 97 -133 165 -164 l52 -25 4878 0 4879 0 52 26 c67 33 125 93
157 160 l25 53 0 4878 0 4878 -24 50 c-31 65 -95 128 -165 163 l-56 27 -4850
2 c-2667 0 -4865 -3 -4883 -7z m9013 -745 c115 -40 200 -132 229 -249 9 -38
10 -8202 0 -8241 -27 -115 -116 -211 -231 -250 -44 -16 -375 -17 -4143 -17
-3097 0 -4106 3 -4138 12 -120 32 -225 144 -248 265 -4 21 -7 1875 -7 4119 0
3169 3 4091 13 4125 35 130 153 232 286 249 32 4 1888 6 4124 6 3829 -2 4068
-3 4115 -19z"/>
<path d="M1530 8905 c-75 -30 -152 -103 -187 -173 l-28 -57 -3 -3535 c-2
-2745 0 -3545 9 -3580 27 -99 92 -178 186 -226 l58 -29 3560 0 3560 0 55 27
c71 35 135 98 168 168 l27 55 0 3560 0 3560 -28 55 c-45 92 -108 148 -202 180
-58 20 -84 20 -3589 19 l-3531 -1 -55 -23z m6689 -515 c58 -20 99 -53 106 -88
11 -61 -69 -191 -271 -437 -367 -448 -397 -484 -659 -812 -234 -293 -281 -352
-518 -658 -98 -126 -187 -240 -198 -253 -10 -12 -19 -25 -19 -28 0 -3 -6 -11
-12 -18 -7 -7 -22 -25 -33 -41 -11 -15 -30 -39 -41 -54 -23 -29 -327 -431
-359 -475 -11 -16 -29 -40 -40 -54 -11 -15 -109 -148 -218 -297 -109 -148
-205 -279 -213 -290 -312 -421 -911 -1285 -1388 -2005 -294 -442 -339 -510
-496 -756 -83 -129 -111 -161 -185 -209 -44 -28 -133 -64 -175 -71 -8 -2 -44
-8 -80 -14 -123 -22 -530 -12 -674 15 -122 24 -283 297 -446 755 -124 351
-268 803 -307 965 -28 116 -33 140 -38 165 -3 14 -8 31 -10 38 -10 28 -19 119
-18 180 2 174 187 367 495 516 155 75 230 96 359 102 77 3 92 1 137 -22 108
-54 177 -163 265 -419 111 -324 189 -510 253 -603 40 -57 69 -71 112 -53 65
27 100 73 308 406 65 105 141 225 169 267 27 43 88 137 135 210 125 195 621
938 752 1127 62 90 118 171 123 180 12 20 293 416 345 486 20 28 86 118 146
200 163 225 476 641 583 775 20 24 41 51 48 60 7 8 42 53 79 100 77 99 125
159 139 174 6 6 26 31 45 56 19 25 37 47 40 50 3 3 48 57 100 120 52 63 105
126 116 140 12 14 54 63 93 109 159 186 264 261 516 372 77 34 312 86 430 95
39 4 72 8 74 10 2 2 88 3 190 3 149 -1 197 -5 240 -19z"/>
</g>
</svg>
